<?xml version="1.0" encoding="utf-8"?>
<!-- Generator: Adobe Illustrator 25.3.1, SVG Export Plug-In . SVG Version: 6.00 Build 0)  -->
<svg version="1.1" id="Layer_1" xmlns="http://www.w3.org/2000/svg" xmlns:xlink="http://www.w3.org/1999/xlink" x="0px" y="0px"
	 viewBox="0 0 27.3 18.9" style="enable-background:new 0 0 27.3 18.9;" xml:space="preserve">
<style type="text/css">
	.st0{fill:#41489B;}
	.st1{fill:#F5F5F5;}
	.st2{fill:#F04E58;}
</style>
<path class="st0" d="M25.2,17.4H2.1c-0.2,0-0.4-0.2-0.4-0.4V1.9c0-0.2,0.2-0.4,0.4-0.4h23.2c0.2,0,0.4,0.2,0.4,0.4V17
	C25.6,17.3,25.5,17.4,25.2,17.4z"/>
<path class="st1" d="M13.2,1.4h-0.7L8.7,4V1.4H6.6V4L2.8,1.4H2.1c-0.2,0-0.4,0.2-0.4,0.4v0.3l3.3,2.2H1.6v2.1h3.3L1.6,8.6v0.3
	c0,0.2,0.2,0.4,0.4,0.4h0.7l3.8-2.5v2.5h2.1V6.8l3.8,2.5h0.7c0.2,0,0.4-0.2,0.4-0.4V8.6l-3.3-2.2h3.3V4.3h-3.3l3.3-2.2V1.9
	C13.6,1.6,13.5,1.4,13.2,1.4z"/>
<path class="st2" d="M13.6,4.8H8.3V1.4H7v3.3H1.6V6H7v3.3h1.2V6h5.4V4.8z"/>
<path class="st2" d="M6.2,4.3L1.8,1.5C1.7,1.6,1.6,1.7,1.6,1.9v0l3.8,2.5H6.2z"/>
<path class="st2" d="M9.4,4.3l4.1-2.7c-0.1-0.1-0.2-0.2-0.4-0.2h-0.1L8.7,4.3H9.4z"/>
<path class="st2" d="M5.8,6.4L1.7,9.1c0.1,0.1,0.2,0.2,0.4,0.2h0.1l4.5-2.9H5.8z"/>
<path class="st2" d="M13.6,8.9L9.8,6.4H9l4.4,2.9C13.5,9.2,13.6,9.1,13.6,8.9z"/>
<path class="st1" d="M7.8,11.6l0.3,1l1-0.4c0.1,0,0.2,0.1,0.1,0.1l-0.6,0.9l0.9,0.5c0.1,0,0.1,0.2,0,0.2L8.4,14l0.2,1.1
	c0,0.1-0.1,0.1-0.2,0.1l-0.7-0.8L7,15.1c-0.1,0.1-0.2,0-0.2-0.1L7,14l-1.1-0.1c-0.1,0-0.1-0.1,0-0.2l0.9-0.5l-0.6-0.9
	c-0.1-0.1,0-0.2,0.1-0.1l1,0.4l0.3-1C7.6,11.5,7.7,11.5,7.8,11.6z"/>
<path class="st1" d="M20.1,4.2l0.2,0.5l0.5-0.2c0,0,0.1,0,0.1,0.1L20.5,5l0.5,0.3c0,0,0,0.1,0,0.1l-0.5,0l0.1,0.5c0,0,0,0.1-0.1,0
	L20,5.6L19.7,6c0,0-0.1,0-0.1,0l0.1-0.5l-0.5,0c0,0-0.1-0.1,0-0.1L19.6,5l-0.3-0.4c0,0,0-0.1,0.1-0.1l0.5,0.2L20.1,4.2
	C20,4.2,20.1,4.2,20.1,4.2z"/>
<path class="st1" d="M16.7,8.1l0.2,0.5l0.5-0.2c0,0,0.1,0,0.1,0.1l-0.3,0.4l0.5,0.3c0,0,0,0.1,0,0.1l-0.5,0l0.1,0.5c0,0,0,0.1-0.1,0
	l-0.4-0.4l-0.4,0.4c0,0-0.1,0-0.1,0l0.1-0.5l-0.5,0c0,0-0.1-0.1,0-0.1l0.5-0.3l-0.3-0.4c0,0,0-0.1,0.1-0.1l0.5,0.2L16.7,8.1
	C16.6,8.1,16.7,8.1,16.7,8.1z"/>
<path class="st1" d="M23.3,6.4l0.2,0.5l0.5-0.2c0,0,0.1,0,0.1,0.1l-0.3,0.4l0.5,0.3c0,0,0,0.1,0,0.1l-0.5,0l0.1,0.5c0,0,0,0.1-0.1,0
	l-0.4-0.4l-0.4,0.4c0,0-0.1,0-0.1,0l0.1-0.5l-0.5,0c0,0-0.1-0.1,0-0.1l0.5-0.3l-0.3-0.4c0,0,0-0.1,0.1-0.1l0.5,0.2L23.3,6.4
	C23.2,6.4,23.3,6.4,23.3,6.4z"/>
<path class="st1" d="M20.1,13.1l0.2,0.5l0.5-0.2c0,0,0.1,0,0.1,0.1l-0.3,0.4l0.5,0.3c0,0,0,0.1,0,0.1l-0.5,0l0.1,0.5
	c0,0,0,0.1-0.1,0L20,14.4l-0.4,0.4c0,0-0.1,0-0.1,0l0.1-0.5l-0.5,0c0,0-0.1-0.1,0-0.1l0.5-0.3l-0.3-0.4c0,0,0-0.1,0.1-0.1l0.5,0.2
	L20.1,13.1C20,13,20.1,13,20.1,13.1z"/>
<path class="st1" d="M21.3,9l-0.1,0.4l-0.4,0c-0.1,0-0.1,0.1,0,0.1L21,9.7l-0.1,0.4c0,0,0,0.1,0.1,0.1l0.3-0.2l0.3,0.2
	c0,0,0.1,0,0.1-0.1l-0.1-0.4l0.3-0.2c0,0,0-0.1,0-0.1l-0.4,0L21.3,9C21.3,9,21.3,9,21.3,9z"/>
</svg>
