<?xml version="1.0" encoding="utf-8"?>
<!-- Generator: Adobe Illustrator 25.3.1, SVG Export Plug-In . SVG Version: 6.00 Build 0)  -->
<svg version="1.1" id="Layer_1" xmlns="http://www.w3.org/2000/svg" xmlns:xlink="http://www.w3.org/1999/xlink" x="0px" y="0px"
	 viewBox="0 0 73.4 56.9" style="enable-background:new 0 0 73.4 56.9;" xml:space="preserve">
<style type="text/css">
	.st0{clip-path:url(#SVGID_2_);}
	.st1{fill:#02E0B1;}
</style>
<g>
	<defs>
		<rect id="SVGID_1_" x="1.4" y="1.5" width="71" height="54"/>
	</defs>
	<clipPath id="SVGID_2_">
		<use xlink:href="#SVGID_1_"  style="overflow:visible;"/>
	</clipPath>
	<g class="st0">
		<path class="st1" d="M71.5,20c-0.6-0.1-1.1,0.3-1.2,0.8c-1,5.1-5.4,8.8-10.6,8.8c-6,0-10.8-4.9-10.8-10.9S53.7,7.9,59.7,7.9
			c5.2,0,9.6,3.7,10.6,8.8c0.1,0.6,0.7,0.9,1.2,0.8c0.6-0.1,0.9-0.7,0.8-1.2c-1.2-6.1-6.5-10.5-12.6-10.5c-3.6,0-6.9,1.5-9.3,4V2.5
			c0-0.6-0.5-1-1-1H22.1c-0.6,0-1,0.5-1,1c0,0.6,0.5,1,1,1h26.2v9.1c-2,4.1-2,8.1,0,12.2v3.4l-9.5,8.6L38.8,37H23.2l-9.6-8.6V3.6
			h3.9c0.6,0,1-0.5,1-1c0-0.6-0.5-1-1-1h-5c-0.6,0-1,0.5-1,1v10.3l-9.7,5.8c-0.3,0.2-0.5,0.5-0.5,0.9v34.9c0,0.6,0.5,1,1,1h35.7
			c0.6,0,1-0.5,1-1c0-0.6-0.5-1-1-1H5.4L23.2,39h15.6l17.8,14.3h-14c-0.6,0-1,0.5-1,1c0,0.6,0.5,1,1,1h16.9c0.6,0,1-0.5,1-1V31.7
			c5.8-0.4,10.6-4.7,11.7-10.4C72.5,20.7,72.1,20.1,71.5,20z M40.8,38L40.8,38l10.5-9.5c2,1.8,4.5,2.9,7.3,3.1v20.6L40.8,38z
			 M3.5,52.2V21.9L21.2,38L3.5,52.2z M11.6,26.4l-7.4-6.7l7.4-4.5V26.4z"/>
		<path class="st1" d="M57.3,22.5c-0.6,0-1,0.5-1,1c0,0.6,0.5,1,1,1h4.7c0.6,0,1-0.5,1-1c0-0.6-0.5-1-1-1h-1.3V14c0-0.6-0.5-1-1-1
			h-2.4c-0.6,0-1,0.5-1,1c0,0.6,0.5,1,1,1h1.3v7.4H57.3z"/>
		<path class="st1" d="M19.9,12.2h21.7c0.6,0,1-0.5,1-1c0-0.6-0.5-1-1-1H19.9c-0.6,0-1,0.5-1,1C18.8,11.8,19.3,12.2,19.9,12.2z"/>
		<path class="st1" d="M19.9,16.4h21.7c0.6,0,1-0.5,1-1c0-0.6-0.5-1-1-1H19.9c-0.6,0-1,0.5-1,1C18.8,15.9,19.3,16.4,19.9,16.4z"/>
		<path class="st1" d="M19.9,20.9h21.7c0.6,0,1-0.5,1-1c0-0.6-0.5-1-1-1H19.9c-0.6,0-1,0.5-1,1C18.8,20.4,19.3,20.9,19.9,20.9z"/>
		<path class="st1" d="M19.9,25.2h21.7c0.6,0,1-0.5,1-1c0-0.6-0.5-1-1-1H19.9c-0.6,0-1,0.5-1,1C18.8,24.7,19.3,25.2,19.9,25.2z"/>
		<path class="st1" d="M19.9,29.5h21.7c0.6,0,1-0.5,1-1c0-0.6-0.5-1-1-1H19.9c-0.6,0-1,0.5-1,1C18.8,29,19.3,29.5,19.9,29.5z"/>
	</g>
</g>
</svg>
