<?xml version="1.0" encoding="utf-8"?>
<!-- Generator: Adobe Illustrator 25.3.1, SVG Export Plug-In . SVG Version: 6.00 Build 0)  -->
<svg version="1.1" id="Layer_1" xmlns="http://www.w3.org/2000/svg" xmlns:xlink="http://www.w3.org/1999/xlink" x="0px" y="0px"
	 viewBox="0 0 97.8 32.3" style="enable-background:new 0 0 97.8 32.3;" xml:space="preserve">
<style type="text/css">
	.st0{clip-path:url(#SVGID_2_);}
	.st1{fill:#4F4F4F;}
</style>
<g>
	<defs>
		<rect id="SVGID_1_" x="1" y="1" width="96.1" height="30"/>
	</defs>
	<clipPath id="SVGID_2_">
		<use xlink:href="#SVGID_1_"  style="overflow:visible;"/>
	</clipPath>
	<g class="st0">
		<path class="st1" d="M30,9.8h2.4v9.8c0,2.5,0.4,4.3,1.2,5.4c0.8,1,2.2,1.6,4.1,1.6c1.1,0,2-0.2,2.8-0.6c0.8-0.4,1.5-1.1,2-1.9
			c0.3-0.5,0.5-1.1,0.6-1.7c0.1-0.7,0.2-1.8,0.2-3.4V9.8h2.4v18.5h-2.4v-2c-0.7,0.9-1.5,1.5-2.4,1.9c-0.9,0.4-2,0.6-3.2,0.6
			c-2.7,0-4.6-0.7-5.8-2.2c-1.2-1.4-1.8-3.8-1.8-7.2V9.8z"/>
		<path class="st1" d="M48.2,4.4h2.4v3c0.7-1,1.6-1.9,2.9-2.5c1.3-0.6,2.6-0.9,4-0.9c2.8,0,5.1,0.9,7,2.8c1.8,1.9,2.8,4.2,2.8,7
			c0,2.7-0.9,5-2.7,6.9c-1.8,1.9-4.1,2.8-6.8,2.8c-1.5,0-2.9-0.3-4.1-0.9c-1.2-0.6-2.2-1.4-3-2.5v1.3V24v4.9h-2.4V4.4z M50.6,13.5
			c0,2.1,0.7,3.9,2.1,5.4s3.1,2.3,5,2.3c2,0,3.6-0.7,5-2.1c1.4-1.4,2.1-3.2,2.1-5.2c0-2.2-0.7-4-2.1-5.5c-1.4-1.5-3.1-2.2-5.1-2.2
			c-1.8,0-3.5,0.7-4.9,2.2C51.3,9.8,50.6,11.6,50.6,13.5z"/>
		<path class="st1" d="M87.5,19.9H70.7c0.1,2,0.9,3.6,2.2,4.9c1.3,1.2,3,1.9,4.9,1.9c1.4,0,2.7-0.4,3.8-1.1c1.1-0.7,2-1.7,2.6-3h2.7
			c-0.9,2.1-2.1,3.6-3.6,4.7c-1.6,1.1-3.4,1.6-5.4,1.6c-2.7,0-5-1-6.9-2.9c-1.9-1.9-2.8-4.2-2.8-6.9c0-2.8,0.9-5.2,2.8-7
			c1.8-1.8,4.2-2.8,7-2.8c2.8,0,5.1,1,6.9,2.9c1.8,1.9,2.7,4.4,2.7,7.5L87.5,19.9L87.5,19.9z M84.9,17.8c-0.5-2.1-1.3-3.6-2.5-4.7
			c-1.2-1-2.8-1.6-4.7-1.6c-1.8,0-3.3,0.6-4.6,1.7c-1.3,1.1-2,2.6-2.3,4.5H84.9z"/>
		<path class="st1" d="M91.2,28.4V12.2h-3.5V9.8h3.5v-6h2.4v6h3.5v2.4h-3.5v16.1H91.2z"/>
		<path class="st1" d="M14.5,31C7.1,31,1,24.8,1,17.3c0-3,0.9-5.8,2.7-8.2c1.7-2.3,4-4,6.7-4.9l0,0c0,0,0.6-0.2,1-1.1l0,0
			c0,0,0-0.1,0-0.1l0.5-0.8C12.6,1.5,13.5,1,14.5,1c1,0,2,0.5,2.6,1.3l0.5,0.9c0.4,0.8,1,1.1,1,1.1l0.2,0.1c2.6,0.9,4.9,2.6,6.5,4.8
			c1.7,2.4,2.7,5.2,2.7,8.2C28.1,24.8,22,31,14.5,31z M11.4,4.9l-0.7,0.2C8.2,5.9,6,7.5,4.4,9.7C2.8,11.9,2,14.5,2,17.3
			C2,24.3,7.6,30,14.5,30c6.9,0,12.6-5.7,12.6-12.8c0-2.8-0.9-5.4-2.5-7.6c-1.6-2.2-3.7-3.7-6.3-4.6l-0.7-0.2l-0.4-0.3l-0.4-1.1
			C16.4,2.6,15.5,2,14.5,2c-1,0-1.9,0.6-2.3,1.5l-0.5,1.1L11.4,4.9z"/>
		<path class="st1" d="M14.5,31C7.1,31,1,24.8,1,17.3c0-3,0.9-5.8,2.7-8.2c1.7-2.3,4-4,6.7-4.9l0,0c0,0,0.6-0.2,1-1.1l0,0
			c0,0,0-0.1,0-0.1l0.5-0.8C12.6,1.5,13.5,1,14.5,1c1,0,2,0.5,2.6,1.3l0.5,0.9c0.4,0.8,1,1.1,1,1.1l0.2,0.1c2.6,0.9,4.9,2.6,6.5,4.8
			c1.7,2.4,2.7,5.2,2.7,8.2C28.1,24.8,22,31,14.5,31z M11.4,4.9l-0.7,0.2C8.2,5.9,6,7.5,4.4,9.7C2.8,11.9,2,14.5,2,17.3
			C2,24.3,7.6,30,14.5,30c6.9,0,12.6-5.7,12.6-12.8c0-2.8-0.9-5.4-2.5-7.6c-1.6-2.2-3.7-3.7-6.3-4.6l-0.7-0.2l-0.4-0.3l-0.4-1.1
			C16.4,2.6,15.5,2,14.5,2c-1,0-1.9,0.6-2.3,1.5l-0.5,1.1L11.4,4.9z"/>
		<path class="st1" d="M19,10.3c0.9,0.4,1.6,2.2,1,3.7c-0.6,1.5-2.6,2.7-3.6,2.3c-0.9-0.4-1.4-2.8-0.8-4.2
			C16.3,10.6,18.1,9.9,19,10.3z"/>
		<path class="st1" d="M11.4,9.9c1-0.3,2.7,0.6,3.1,2.1c0.5,1.5-0.2,3.8-1.2,4.1c-1,0.3-2.9-1.4-3.3-2.9
			C9.5,11.7,10.4,10.2,11.4,9.9z"/>
		<path class="st1" d="M7.3,18c-1.2-0.7-1.7-2.2-1.2-3c0.4-0.7,2.1-1,3.3-0.3c1.2,0.7,2,2.4,1.6,3.1C10.4,18.6,8.4,18.7,7.3,18z"/>
		<path class="st1" d="M17.6,24.1c-1.5,0.4-1.8-0.5-3.2-0.5c-1.3-0.1-1.9,1.4-3.4,1s-1-2.6-1-2.6c1.2-5.1,4.1-5.4,4.1-5.4
			c2.3-0.2,4,2.6,4,2.6C20.6,23,17.6,24.1,17.6,24.1z"/>
		<path class="st1" d="M21.9,18.9c-1,0.6-2.9,0.7-3.3-0.1c-0.4-0.8,0.5-2.4,1.5-3c1-0.6,2.3-0.3,2.8,0.5
			C23.3,17,22.9,18.3,21.9,18.9z"/>
	</g>
</g>
</svg>
