<?xml version="1.0" encoding="utf-8"?>
<!-- Generator: Adobe Illustrator 25.3.1, SVG Export Plug-In . SVG Version: 6.00 Build 0)  -->
<svg version="1.1" id="Layer_1" xmlns="http://www.w3.org/2000/svg" xmlns:xlink="http://www.w3.org/1999/xlink" x="0px" y="0px"
	 viewBox="0 0 27.3 18.9" style="enable-background:new 0 0 27.3 18.9;" xml:space="preserve">
<style type="text/css">
	.st0{fill:#F5F5F5;}
	.st1{fill:#D81F2A;}
	.st2{fill:#2056A7;}
</style>
<path class="st0" d="M25.2,17.7H2c-0.2,0-0.4-0.2-0.4-0.4V2.1c0-0.2,0.2-0.4,0.4-0.4h23.2c0.2,0,0.4,0.2,0.4,0.4v15.2
	C25.6,17.5,25.4,17.7,25.2,17.7z"/>
<path class="st1" d="M25.6,2.9h-24V2.1c0-0.2,0.2-0.4,0.4-0.4h23.2c0.2,0,0.4,0.2,0.4,0.4L25.6,2.9z"/>
<path class="st1" d="M25.6,6.6h-24v1.2h24V6.6z"/>
<path class="st1" d="M25.6,4.2h-24v1.2h24V4.2z"/>
<path class="st1" d="M25.6,10.3H2c-0.2,0-0.4-0.2-0.4-0.4V9.1h24V10.3z"/>
<path class="st1" d="M25.6,14h-24v1.2h24V14z"/>
<path class="st1" d="M25.2,17.7H2c-0.2,0-0.4-0.2-0.4-0.4v-0.8h24v0.8C25.6,17.5,25.4,17.7,25.2,17.7z"/>
<path class="st1" d="M25.6,11.5h-24v1.2h24V11.5z"/>
<path class="st2" d="M12.3,1.7H2c-0.2,0-0.4,0.2-0.4,0.4v7.8c0,0.2,0.2,0.4,0.4,0.4h10.3c0.2,0,0.4-0.2,0.4-0.4V2.1
	C12.7,1.9,12.6,1.7,12.3,1.7z"/>
<path class="st0" d="M2.7,2.7l0.1,0.3h0.3c0,0,0.1,0,0,0.1L2.9,3.2L3,3.5c0,0,0,0.1-0.1,0L2.7,3.3L2.5,3.5c0,0-0.1,0-0.1,0l0.1-0.3
	L2.3,3c0,0,0-0.1,0-0.1h0.3L2.7,2.7C2.7,2.6,2.7,2.6,2.7,2.7z"/>
<path class="st0" d="M2.7,4.1l0.1,0.3h0.3c0,0,0.1,0,0,0.1L2.9,4.6L3,4.9C3,5,3,5,2.9,5L2.7,4.8L2.5,5c0,0-0.1,0-0.1,0l0.1-0.3
	L2.3,4.5c0,0,0-0.1,0-0.1h0.3L2.7,4.1C2.7,4.1,2.7,4.1,2.7,4.1z"/>
<path class="st0" d="M2.7,5.6l0.1,0.3h0.3c0,0,0.1,0,0,0.1L2.9,6.1L3,6.4c0,0,0,0.1-0.1,0L2.7,6.3L2.5,6.4c0,0-0.1,0-0.1,0l0.1-0.3
	L2.3,5.9c0,0,0-0.1,0-0.1h0.3L2.7,5.6C2.7,5.5,2.7,5.5,2.7,5.6z"/>
<path class="st0" d="M2.7,7l0.1,0.3h0.3c0,0,0.1,0,0,0.1L2.9,7.6L3,7.9c0,0,0,0.1-0.1,0L2.7,7.7L2.5,7.9c0,0-0.1,0-0.1,0l0.1-0.3
	L2.3,7.4c0,0,0-0.1,0-0.1h0.3L2.7,7C2.7,7,2.7,7,2.7,7z"/>
<path class="st0" d="M2.7,8.5l0.1,0.3h0.3c0,0,0.1,0,0,0.1L2.9,9L3,9.3c0,0,0,0.1-0.1,0L2.7,9.2L2.5,9.4c0,0-0.1,0-0.1,0L2.5,9
	L2.3,8.9c0,0,0-0.1,0-0.1h0.3L2.7,8.5C2.7,8.5,2.7,8.5,2.7,8.5z"/>
<path class="st0" d="M3.8,3.4l0.1,0.3h0.3c0,0,0.1,0,0,0.1L4,3.9l0.1,0.3c0,0,0,0.1-0.1,0L3.8,4.1L3.6,4.2c0,0-0.1,0-0.1,0l0.1-0.3
	L3.4,3.7c0,0,0-0.1,0-0.1h0.3L3.8,3.4C3.8,3.3,3.8,3.3,3.8,3.4z"/>
<path class="st0" d="M3.8,4.8l0.1,0.3h0.3c0,0,0.1,0,0,0.1L4,5.4l0.1,0.3c0,0,0,0.1-0.1,0L3.8,5.5L3.6,5.7c0,0-0.1,0-0.1,0l0.1-0.3
	L3.4,5.2c0,0,0-0.1,0-0.1h0.3L3.8,4.8C3.8,4.8,3.8,4.8,3.8,4.8z"/>
<path class="st0" d="M3.8,6.3l0.1,0.3h0.3c0,0,0.1,0,0,0.1L4,6.8l0.1,0.3c0,0,0,0.1-0.1,0L3.8,7L3.6,7.2c0,0-0.1,0-0.1,0l0.1-0.3
	L3.4,6.7c0,0,0-0.1,0-0.1h0.3L3.8,6.3C3.8,6.3,3.8,6.3,3.8,6.3z"/>
<path class="st0" d="M3.8,7.8L3.9,8h0.3c0,0,0.1,0,0,0.1L4,8.3l0.1,0.3c0,0,0,0.1-0.1,0L3.8,8.4L3.6,8.6c0,0-0.1,0-0.1,0l0.1-0.3
	L3.4,8.1c0,0,0-0.1,0-0.1h0.3L3.8,7.8C3.8,7.7,3.8,7.7,3.8,7.8z"/>
<path class="st0" d="M5,2.7l0.1,0.3h0.3c0,0,0.1,0,0,0.1L5.1,3.2l0.1,0.3c0,0,0,0.1-0.1,0L4.9,3.3L4.7,3.5c0,0-0.1,0-0.1,0l0.1-0.3
	L4.5,3c0,0,0-0.1,0-0.1h0.3L5,2.7C4.9,2.6,5,2.6,5,2.7z"/>
<path class="st0" d="M5,4.1l0.1,0.3h0.3c0,0,0.1,0,0,0.1L5.1,4.6l0.1,0.3c0,0,0,0.1-0.1,0L4.9,4.8L4.7,5c0,0-0.1,0-0.1,0l0.1-0.3
	L4.5,4.5c0,0,0-0.1,0-0.1h0.3L5,4.1C4.9,4.1,5,4.1,5,4.1z"/>
<path class="st0" d="M5,5.6l0.1,0.3h0.3c0,0,0.1,0,0,0.1L5.1,6.1l0.1,0.3c0,0,0,0.1-0.1,0L4.9,6.3L4.7,6.4c0,0-0.1,0-0.1,0l0.1-0.3
	L4.5,5.9c0,0,0-0.1,0-0.1h0.3L5,5.6C4.9,5.5,5,5.5,5,5.6z"/>
<path class="st0" d="M5,7l0.1,0.3h0.3c0,0,0.1,0,0,0.1L5.1,7.6l0.1,0.3c0,0,0,0.1-0.1,0L4.9,7.7L4.7,7.9c0,0-0.1,0-0.1,0l0.1-0.3
	L4.5,7.4c0,0,0-0.1,0-0.1h0.3L5,7C4.9,7,5,7,5,7z"/>
<path class="st0" d="M5,8.5l0.1,0.3h0.3c0,0,0.1,0,0,0.1L5.1,9l0.1,0.3c0,0,0,0.1-0.1,0L4.9,9.2L4.7,9.4c0,0-0.1,0-0.1,0L4.7,9
	L4.5,8.9c0,0,0-0.1,0-0.1h0.3L5,8.5C4.9,8.5,5,8.5,5,8.5z"/>
<path class="st0" d="M6.1,3.4l0.1,0.3h0.3c0,0,0.1,0,0,0.1L6.3,3.9l0.1,0.3c0,0,0,0.1-0.1,0L6,4.1L5.8,4.2c0,0-0.1,0-0.1,0l0.1-0.3
	L5.6,3.7c0,0,0-0.1,0-0.1h0.3L6.1,3.4C6,3.3,6.1,3.3,6.1,3.4z"/>
<path class="st0" d="M6.1,4.8l0.1,0.3h0.3c0,0,0.1,0,0,0.1L6.3,5.4l0.1,0.3c0,0,0,0.1-0.1,0L6,5.5L5.8,5.7c0,0-0.1,0-0.1,0l0.1-0.3
	L5.6,5.2c0,0,0-0.1,0-0.1h0.3L6.1,4.8C6,4.8,6.1,4.8,6.1,4.8z"/>
<path class="st0" d="M6.1,6.3l0.1,0.3h0.3c0,0,0.1,0,0,0.1L6.3,6.8l0.1,0.3c0,0,0,0.1-0.1,0L6,7L5.8,7.2c0,0-0.1,0-0.1,0l0.1-0.3
	L5.6,6.7c0,0,0-0.1,0-0.1h0.3L6.1,6.3C6,6.3,6.1,6.3,6.1,6.3z"/>
<path class="st0" d="M6.1,7.8L6.2,8h0.3c0,0,0.1,0,0,0.1L6.3,8.3l0.1,0.3c0,0,0,0.1-0.1,0L6,8.4L5.8,8.6c0,0-0.1,0-0.1,0l0.1-0.3
	L5.6,8.1c0,0,0-0.1,0-0.1h0.3L6.1,7.8C6,7.7,6.1,7.7,6.1,7.8z"/>
<path class="st0" d="M7.2,2.7l0.1,0.3h0.3c0,0,0.1,0,0,0.1L7.4,3.2l0.1,0.3c0,0,0,0.1-0.1,0L7.2,3.3L6.9,3.5c0,0-0.1,0-0.1,0L7,3.2
	L6.7,3c0,0,0-0.1,0-0.1H7L7.2,2.7C7.1,2.6,7.2,2.6,7.2,2.7z"/>
<path class="st0" d="M7.2,4.1l0.1,0.3h0.3c0,0,0.1,0,0,0.1L7.4,4.6l0.1,0.3c0,0,0,0.1-0.1,0L7.2,4.8L6.9,5c0,0-0.1,0-0.1,0L7,4.6
	L6.7,4.5c0,0,0-0.1,0-0.1H7L7.2,4.1C7.1,4.1,7.2,4.1,7.2,4.1z"/>
<path class="st0" d="M7.2,5.6l0.1,0.3h0.3c0,0,0.1,0,0,0.1L7.4,6.1l0.1,0.3c0,0,0,0.1-0.1,0L7.2,6.3L6.9,6.4c0,0-0.1,0-0.1,0L7,6.1
	L6.7,5.9c0,0,0-0.1,0-0.1H7L7.2,5.6C7.1,5.5,7.2,5.5,7.2,5.6z"/>
<path class="st0" d="M7.2,7l0.1,0.3h0.3c0,0,0.1,0,0,0.1L7.4,7.6l0.1,0.3c0,0,0,0.1-0.1,0L7.2,7.7L6.9,7.9c0,0-0.1,0-0.1,0L7,7.6
	L6.7,7.4c0,0,0-0.1,0-0.1H7L7.2,7C7.1,7,7.2,7,7.2,7z"/>
<path class="st0" d="M7.2,8.5l0.1,0.3h0.3c0,0,0.1,0,0,0.1L7.4,9l0.1,0.3c0,0,0,0.1-0.1,0L7.2,9.2L6.9,9.4c0,0-0.1,0-0.1,0L7,9
	L6.7,8.9c0,0,0-0.1,0-0.1H7L7.2,8.5C7.1,8.5,7.2,8.5,7.2,8.5z"/>
<path class="st0" d="M8.3,3.4l0.1,0.3h0.3c0,0,0.1,0,0,0.1L8.5,3.9l0.1,0.3c0,0,0,0.1-0.1,0L8.3,4.1L8,4.2c0,0-0.1,0-0.1,0l0.1-0.3
	L7.8,3.7c0,0,0-0.1,0-0.1h0.3L8.3,3.4C8.2,3.3,8.3,3.3,8.3,3.4z"/>
<path class="st0" d="M8.3,4.8l0.1,0.3h0.3c0,0,0.1,0,0,0.1L8.5,5.4l0.1,0.3c0,0,0,0.1-0.1,0L8.3,5.5L8,5.7c0,0-0.1,0-0.1,0l0.1-0.3
	L7.8,5.2c0,0,0-0.1,0-0.1h0.3L8.3,4.8C8.2,4.8,8.3,4.8,8.3,4.8z"/>
<path class="st0" d="M8.3,6.3l0.1,0.3h0.3c0,0,0.1,0,0,0.1L8.5,6.8l0.1,0.3c0,0,0,0.1-0.1,0L8.3,7L8,7.2c0,0-0.1,0-0.1,0l0.1-0.3
	L7.8,6.7c0,0,0-0.1,0-0.1h0.3L8.3,6.3C8.2,6.3,8.3,6.3,8.3,6.3z"/>
<path class="st0" d="M8.3,7.8L8.4,8h0.3c0,0,0.1,0,0,0.1L8.5,8.3l0.1,0.3c0,0,0,0.1-0.1,0L8.3,8.4L8,8.6c0,0-0.1,0-0.1,0l0.1-0.3
	L7.8,8.1c0,0,0-0.1,0-0.1h0.3L8.3,7.8C8.2,7.7,8.3,7.7,8.3,7.8z"/>
<path class="st0" d="M9.4,2.7l0.1,0.3h0.3c0,0,0.1,0,0,0.1L9.6,3.2l0.1,0.3c0,0,0,0.1-0.1,0L9.4,3.3L9.2,3.5c0,0-0.1,0-0.1,0
	l0.1-0.3L8.9,3c0,0,0-0.1,0-0.1h0.3L9.4,2.7C9.4,2.6,9.4,2.6,9.4,2.7z"/>
<path class="st0" d="M9.4,4.1l0.1,0.3h0.3c0,0,0.1,0,0,0.1L9.6,4.6l0.1,0.3c0,0,0,0.1-0.1,0L9.4,4.8L9.2,5c0,0-0.1,0-0.1,0l0.1-0.3
	L8.9,4.5c0,0,0-0.1,0-0.1h0.3L9.4,4.1C9.4,4.1,9.4,4.1,9.4,4.1z"/>
<path class="st0" d="M9.4,5.6l0.1,0.3h0.3c0,0,0.1,0,0,0.1L9.6,6.1l0.1,0.3c0,0,0,0.1-0.1,0L9.4,6.3L9.2,6.4c0,0-0.1,0-0.1,0
	l0.1-0.3L8.9,5.9c0,0,0-0.1,0-0.1h0.3L9.4,5.6C9.4,5.5,9.4,5.5,9.4,5.6z"/>
<path class="st0" d="M9.4,7l0.1,0.3h0.3c0,0,0.1,0,0,0.1L9.6,7.6l0.1,0.3c0,0,0,0.1-0.1,0L9.4,7.7L9.2,7.9c0,0-0.1,0-0.1,0l0.1-0.3
	L8.9,7.4c0,0,0-0.1,0-0.1h0.3L9.4,7C9.4,7,9.4,7,9.4,7z"/>
<path class="st0" d="M9.4,8.5l0.1,0.3h0.3c0,0,0.1,0,0,0.1L9.6,9l0.1,0.3c0,0,0,0.1-0.1,0L9.4,9.2L9.2,9.4c0,0-0.1,0-0.1,0L9.2,9
	L8.9,8.9c0,0,0-0.1,0-0.1h0.3L9.4,8.5C9.4,8.5,9.4,8.5,9.4,8.5z"/>
<path class="st0" d="M10.5,3.4l0.1,0.3h0.3c0,0,0.1,0,0,0.1l-0.2,0.2l0.1,0.3c0,0,0,0.1-0.1,0l-0.2-0.2l-0.2,0.2c0,0-0.1,0-0.1,0
	l0.1-0.3l-0.2-0.2c0,0,0-0.1,0-0.1h0.3L10.5,3.4C10.5,3.3,10.5,3.3,10.5,3.4z"/>
<path class="st0" d="M10.5,4.8l0.1,0.3h0.3c0,0,0.1,0,0,0.1l-0.2,0.2l0.1,0.3c0,0,0,0.1-0.1,0l-0.2-0.2l-0.2,0.2c0,0-0.1,0-0.1,0
	l0.1-0.3l-0.2-0.2c0,0,0-0.1,0-0.1h0.3L10.5,4.8C10.5,4.8,10.5,4.8,10.5,4.8z"/>
<path class="st0" d="M10.5,6.3l0.1,0.3h0.3c0,0,0.1,0,0,0.1l-0.2,0.2l0.1,0.3c0,0,0,0.1-0.1,0L10.5,7l-0.2,0.2c0,0-0.1,0-0.1,0
	l0.1-0.3l-0.2-0.2c0,0,0-0.1,0-0.1h0.3L10.5,6.3C10.5,6.3,10.5,6.3,10.5,6.3z"/>
<path class="st0" d="M10.5,7.8L10.6,8h0.3c0,0,0.1,0,0,0.1l-0.2,0.2l0.1,0.3c0,0,0,0.1-0.1,0l-0.2-0.2l-0.2,0.2c0,0-0.1,0-0.1,0
	l0.1-0.3l-0.2-0.2c0,0,0-0.1,0-0.1h0.3L10.5,7.8C10.5,7.7,10.5,7.7,10.5,7.8z"/>
<path class="st0" d="M11.7,2.7l0.1,0.3H12c0,0,0.1,0,0,0.1l-0.2,0.2l0.1,0.3c0,0,0,0.1-0.1,0l-0.2-0.2l-0.2,0.2c0,0-0.1,0-0.1,0
	l0.1-0.3L11.2,3c0,0,0-0.1,0-0.1h0.3L11.7,2.7C11.6,2.6,11.6,2.6,11.7,2.7z"/>
<path class="st0" d="M11.7,4.1l0.1,0.3H12c0,0,0.1,0,0,0.1l-0.2,0.2l0.1,0.3c0,0,0,0.1-0.1,0l-0.2-0.2L11.4,5c0,0-0.1,0-0.1,0
	l0.1-0.3l-0.2-0.2c0,0,0-0.1,0-0.1h0.3L11.7,4.1C11.6,4.1,11.6,4.1,11.7,4.1z"/>
<path class="st0" d="M11.7,5.6l0.1,0.3H12c0,0,0.1,0,0,0.1l-0.2,0.2l0.1,0.3c0,0,0,0.1-0.1,0l-0.2-0.2l-0.2,0.2c0,0-0.1,0-0.1,0
	l0.1-0.3l-0.2-0.2c0,0,0-0.1,0-0.1h0.3L11.7,5.6C11.6,5.5,11.6,5.5,11.7,5.6z"/>
<path class="st0" d="M11.7,7l0.1,0.3H12c0,0,0.1,0,0,0.1l-0.2,0.2l0.1,0.3c0,0,0,0.1-0.1,0l-0.2-0.2l-0.2,0.2c0,0-0.1,0-0.1,0
	l0.1-0.3l-0.2-0.2c0,0,0-0.1,0-0.1h0.3L11.7,7C11.6,7,11.6,7,11.7,7z"/>
<path class="st0" d="M11.7,8.5l0.1,0.3H12c0,0,0.1,0,0,0.1L11.8,9l0.1,0.3c0,0,0,0.1-0.1,0l-0.2-0.2l-0.2,0.2c0,0-0.1,0-0.1,0
	L11.4,9l-0.2-0.2c0,0,0-0.1,0-0.1h0.3L11.7,8.5C11.6,8.5,11.6,8.5,11.7,8.5z"/>
</svg>
